<svg width="115" height="114" viewBox="0 0 115 114" fill="none" xmlns="http://www.w3.org/2000/svg">
<circle cx="57.3501" cy="57" r="55.2577" transform="rotate(90 57.3501 57)" fill="black" stroke="black" stroke-width="3.3"/>
<path d="M33.5307 90.6149V92.2649H35.1807H79.8984H81.5484V90.6149V83.0004V81.3504H79.8984H50.2323L64.0749 66.5448L64.0772 66.5424C68.1576 62.1605 71.3722 58.4228 73.7041 55.3371C76.0671 52.2179 77.7793 49.3202 78.7773 46.6521C79.7918 43.9784 80.3024 41.2318 80.3024 38.4212C80.3024 34.4855 79.3141 30.8738 77.3252 27.626C75.3446 24.3919 72.6121 21.8298 69.1644 19.9447C65.683 18.0412 61.7237 17.112 57.3319 17.112C52.9604 17.112 48.9653 18.0422 45.3823 19.9332L45.3781 19.9354C41.8219 21.8254 38.9937 24.4757 36.9219 27.8704C34.829 31.2998 33.8076 35.2508 33.8076 39.6672V41.3172H35.4576H43.6258H45.2758V39.6672C45.2758 37.1942 45.7706 35.1218 46.7008 33.3971C47.6576 31.6655 48.9895 30.3346 50.7221 29.3786L50.7221 29.3787L50.7278 29.3755C52.4737 28.4034 54.5647 27.888 57.055 27.888C59.3984 27.888 61.4558 28.3406 63.2594 29.212C65.0548 30.0794 66.4327 31.2887 67.4366 32.8438L67.4405 32.8499L67.4446 32.856C68.4429 34.3727 68.9726 36.2045 68.9726 38.4212C68.9726 40.3604 68.5821 42.2099 67.7981 43.9843L67.7945 43.9926C67.0138 45.786 65.7859 47.7617 64.0719 49.9214C62.3253 52.0987 60.0904 54.6766 57.3608 57.6585L57.3596 57.6597L33.9624 83.272L33.5307 83.7447V84.3849V90.6149Z" fill="black" stroke="white" stroke-width="3.3"/>
</svg>
