<svg width="102" height="102" viewBox="0 0 102 102" fill="none" xmlns="http://www.w3.org/2000/svg">
<circle cx="50.622" cy="50.6221" r="49.1221" transform="rotate(90 50.622 50.6221)" fill="black" stroke="black" stroke-width="3"/>
<path d="M59.1089 21.25L57.3589 21.25L57.3589 23L57.3589 79L57.3589 80.75L59.1089 80.75L69 80.75L70.75 80.75L70.75 79L70.75 23L70.75 21.25L69 21.25L59.1089 21.25ZM32 21.25L30.25 21.25L30.25 23L30.25 79L30.25 80.75L32 80.75L41.8911 80.75L43.6411 80.75L43.6411 79L43.6411 23L43.6411 21.25L41.8911 21.25L32 21.25Z" stroke="white" stroke-width="3.5"/>
</svg>
