<svg width="115" height="114" viewBox="0 0 115 114" fill="none" xmlns="http://www.w3.org/2000/svg">
<circle cx="57.3501" cy="57.0923" r="55.2577" transform="rotate(90 57.3501 57.0923)" fill="white" stroke="black" stroke-width="3.3"/>
<path fill-rule="evenodd" clip-rule="evenodd" d="M44.1614 92.7517L44.1548 92.7488C40.1872 90.9968 36.9335 88.514 34.4932 85.2692L34.4849 85.2581L34.4767 85.247C32.0283 81.9281 30.7164 78.0887 30.5046 73.8254L30.3486 70.6869H44.9712L45.1934 73.4362C45.3311 75.1406 45.8958 76.5169 46.8571 77.6735C47.8886 78.8913 49.2771 79.8892 51.116 80.6285C52.9568 81.3687 55.0524 81.7625 57.442 81.7625C60.1392 81.7625 62.4077 81.2934 64.3117 80.4348C66.2363 79.5668 67.6411 78.4124 68.6376 77.0036C69.5914 75.6551 70.0962 74.0768 70.0962 72.1541C70.0962 70.0652 69.5867 68.3484 68.6423 66.8981L68.638 66.8915L68.6338 66.8848C67.6964 65.4286 66.2833 64.211 64.2364 63.2823C62.2343 62.3739 59.6361 61.8534 56.3344 61.8534H47.6681V48.2588H56.3344C58.7895 48.2588 60.8025 47.817 62.4511 47.0286L62.4568 47.0259L62.4624 47.0232C64.1481 46.2257 65.3787 45.1495 66.2528 43.8047L66.2599 43.7937L66.2672 43.7828C67.126 42.4864 67.6042 40.9081 67.6042 38.9273C67.6042 36.9802 67.1781 35.4396 66.4352 34.1961C65.6768 32.9266 64.6063 31.9214 63.1402 31.1709L63.1337 31.1676L63.1272 31.1643C61.717 30.4337 59.9465 30.0111 57.7188 30.0111C55.6496 30.0111 53.7331 30.3897 51.9424 31.1327L51.935 31.1358L51.9276 31.1388C50.2145 31.8387 48.8834 32.8274 47.8612 34.0922L47.8548 34.1001L47.8484 34.1079C46.9329 35.2251 46.3943 36.6024 46.3071 38.3815L46.1677 41.2252H31.9103L32.0259 38.1237C32.1854 33.8423 33.4896 29.9929 35.9779 26.6823C38.3937 23.4451 41.5415 20.9481 45.3533 19.1848L45.3603 19.1816C49.1998 17.4174 53.3801 16.5549 57.8573 16.5549C62.6438 16.5549 66.9333 17.5262 70.6066 19.6041C74.1705 21.5972 76.9835 24.2809 78.9563 27.659C80.9084 31.0017 81.891 34.6372 81.891 38.512C81.891 43.0532 80.6861 47.1043 78.1528 50.5037C77.0634 51.9792 75.8016 53.2511 74.3787 54.3201C76.5657 55.46 78.4741 56.9931 80.0677 58.9364C83.084 62.5912 84.5215 67.0639 84.5215 72.1541C84.5215 76.5863 83.3027 80.6398 80.8505 84.2245C78.4559 87.7355 75.2017 90.4639 71.177 92.4247C67.1134 94.4043 62.5592 95.3571 57.5804 95.3571C52.6676 95.3571 48.1754 94.5126 44.1614 92.7517ZM78.3818 82.5375C80.4815 79.4686 81.5314 76.0075 81.5314 72.1541C81.5314 67.6546 80.2738 63.882 77.7588 60.8362C76.0541 58.7562 73.8989 57.2115 71.2931 56.202C70.1052 55.7419 68.8237 55.3929 67.4485 55.1553C67.3897 55.1451 67.3307 55.1351 67.2715 55.1254V54.5716C67.3037 54.5618 67.3357 54.552 67.3677 54.5422C68.6973 54.1317 69.9223 53.6007 71.043 52.9493C72.8987 51.8707 74.4682 50.4616 75.7513 48.7223C77.8511 45.9072 78.9009 42.5038 78.9009 38.512C78.9009 35.1662 78.0587 32.0512 76.3743 29.1669C74.6899 26.2827 72.2786 23.9637 69.1406 22.2101C66.0025 20.4334 62.2414 19.545 57.8573 19.545C53.7732 19.545 50.0236 20.3295 46.6086 21.8986C43.2167 23.4676 40.4709 25.6597 38.3712 28.4747C36.8549 30.4908 35.85 32.7476 35.3565 35.245C35.1665 36.2061 35.0523 37.2028 35.0139 38.2351H43.3206C43.4359 35.8815 44.1743 33.8741 45.5357 32.2127C46.8971 30.5283 48.6507 29.2477 50.7966 28.3709C52.9656 27.471 55.273 27.021 57.7188 27.021C60.3262 27.021 62.5875 27.5171 64.5026 28.5093C66.4409 29.5015 67.9407 30.886 69.0021 32.6627C70.0635 34.4394 70.5942 36.5276 70.5942 38.9273C70.5942 41.4193 69.9828 43.5883 68.7598 45.4342C67.56 47.2801 65.8871 48.7107 63.7412 49.726C61.6184 50.7413 59.1494 51.2489 56.3344 51.2489H50.6581V58.8634H56.3344C59.934 58.8634 62.9798 59.4287 65.4718 60.5593C67.9638 61.69 69.8559 63.259 71.148 65.2665C72.4402 67.2508 73.0862 69.5467 73.0862 72.1541C73.0862 74.6461 72.4171 76.8382 71.0788 78.7302C69.7405 80.6223 67.8945 82.0991 65.541 83.1605C63.1874 84.2219 60.4877 84.7526 57.442 84.7526C54.7192 84.7526 52.2387 84.3026 50.0005 83.4028C47.7623 82.5029 45.951 81.2338 44.5666 79.5955C43.1821 77.9342 42.3976 75.9613 42.213 73.677H33.491C33.5422 74.7084 33.6664 75.7051 33.8635 76.6671C34.3763 79.1702 35.3827 81.4385 36.8829 83.472C38.9826 86.2639 41.8092 88.4445 45.3626 90.0135C48.9391 91.5825 53.0117 92.3671 57.5804 92.3671C62.1722 92.3671 66.2678 91.4902 69.8674 89.7366C73.467 87.983 76.3051 85.5833 78.3818 82.5375Z" fill="black"/>
</svg>
