<svg width="114" height="114" viewBox="0 0 114 114" fill="none" xmlns="http://www.w3.org/2000/svg">
<circle cx="56.8917" cy="56.8915" r="55.2057" transform="rotate(90 56.8917 56.8915)" fill="white" stroke="black" stroke-width="3.37154"/>
<path d="M98.9962 59.0765C98.7746 60.6526 98.6207 62.2475 98.3164 63.8086C95.7587 76.9528 88.5361 86.7464 76.784 93.1669C70.1549 96.7909 62.9737 98.3445 55.4357 97.9365C43.954 97.315 34.2901 92.7252 26.4704 84.3018C26.4141 84.2419 26.3803 84.1595 26.2939 84.0247C28.6413 81.9432 30.985 79.8655 33.3812 77.739C40.3221 85.0505 48.7577 88.783 58.8986 88.3525C65.9709 88.053 72.2357 85.5597 77.7117 81.1308C88.5925 72.3256 92.4122 56.8827 86.846 44.0679C81.0807 30.7964 67.9953 23.541 54.6394 24.7166C39.2779 26.068 29.4263 37.434 26.8197 47.2501C28.5962 47.2501 30.354 47.2501 32.2732 47.2501C28.6488 53.0641 25.1108 58.7471 21.4751 64.5761C17.9596 58.7733 14.5155 53.0791 11 47.2688C12.9981 47.2688 14.846 47.2688 16.7502 47.2688C16.8779 46.8195 16.9981 46.4227 17.1108 46.0184C20.1155 35.1503 26.4178 26.7382 36.0854 20.883C43.2629 16.5365 51.1352 14.4849 59.4732 15.1101C76.6976 16.4055 88.8441 25.1358 95.8864 40.8445C97.6479 44.7792 98.5493 48.9647 98.8535 53.27C98.8685 53.4946 98.9512 53.7118 99 53.9326C98.9962 55.651 98.9962 57.3619 98.9962 59.0765Z" stroke="black" stroke-width="3.3" stroke-miterlimit="10"/>
</svg>
